<?xml version="1.0" standalone="no"?>
<!DOCTYPE svg PUBLIC "-//W3C//DTD SVG 20010904//EN"
 "http://www.w3.org/TR/2001/REC-SVG-20010904/DTD/svg10.dtd">
<svg version="1.0" xmlns="http://www.w3.org/2000/svg"
 width="877.000000pt" height="621.000000pt" viewBox="0 0 877.000000 621.000000"
 preserveAspectRatio="xMidYMid meet">

<g transform="translate(0.000000,621.000000) scale(0.100000,-0.100000)"
fill="#000000" stroke="none">
<path d="M3317 5873 c-4 -3 -7 -80 -7 -170 l0 -163 34 0 35 0 3 53 3 52 55 3
c46 3 60 8 88 35 27 26 32 38 32 78 0 57 -26 94 -78 109 -41 11 -155 14 -165
3z m162 -77 c7 -8 11 -27 9 -43 -2 -23 -10 -29 -41 -36 -55 -13 -67 -5 -67 48
l0 45 44 0 c26 0 48 -6 55 -14z"/>
<path d="M3694 5867 c-2 -7 -3 -82 -2 -167 l3 -155 38 -3 37 -3 0 55 c0 53 1
56 25 56 18 0 31 -10 45 -32 41 -68 52 -78 86 -78 36 0 45 18 21 39 -8 6 -22
30 -33 53 -14 31 -16 42 -6 46 19 6 42 57 42 94 -1 69 -67 108 -180 108 -49 0
-72 -4 -76 -13z m170 -73 c34 -33 9 -71 -49 -76 l-40 -3 -3 48 -3 47 40 0 c23
0 46 -7 55 -16z"/>
<path d="M4094 5867 c-2 -7 -3 -82 -2 -167 l3 -155 118 -3 117 -3 0 31 0 30
-80 0 -80 0 0 40 0 40 75 0 75 0 -2 30 -2 30 -73 0 -73 0 0 35 0 35 78 0 78 0
-2 28 c-1 15 -3 30 -3 35 -1 4 -51 7 -111 7 -81 0 -112 -3 -116 -13z"/>
<path d="M4508 5863 c-34 -22 -52 -63 -43 -102 7 -33 45 -62 111 -84 47 -17
63 -39 45 -61 -19 -22 -73 -20 -104 4 -25 20 -28 20 -52 4 -23 -15 -24 -19
-12 -38 23 -34 97 -60 150 -52 62 9 97 43 97 94 0 54 -28 86 -98 112 -60 23
-73 35 -65 57 6 15 74 18 89 3 11 -11 54 14 54 31 0 5 -15 18 -32 29 -40 24
-103 25 -140 3z"/>
<path d="M4837 5874 c-4 -4 -7 -81 -7 -171 l0 -164 117 3 117 3 0 25 c1 24 -2
25 -79 30 l-80 5 0 35 0 35 73 3 72 3 0 29 0 29 -72 3 -73 3 0 30 0 30 78 3
78 3 -3 32 -3 32 -106 3 c-58 1 -108 -1 -112 -4z"/>
<path d="M5305 5873 c-37 -10 -93 -63 -105 -99 -18 -54 -8 -136 21 -172 26
-33 103 -72 141 -72 36 0 91 18 118 40 l25 19 -22 23 c-22 22 -24 22 -52 5
-58 -34 -138 -12 -162 45 -15 37 -3 95 26 124 29 29 107 33 144 8 21 -15 24
-15 43 4 25 25 17 39 -36 63 -39 18 -98 23 -141 12z"/>
<path d="M3776 5348 c61 -65 284 -295 342 -354 17 -18 32 -36 32 -39 0 -3
-103 -5 -230 -5 l-229 0 -3 -72 -3 -72 -157 159 c-86 88 -167 172 -180 188
-13 15 -27 27 -31 27 -9 0 -7 -1593 2 -1634 6 -28 10 -25 189 159 l182 188 0
-162 0 -161 146 0 c88 0 144 -4 142 -10 -1 -5 -99 -108 -215 -229 -117 -120
-213 -224 -213 -229 0 -12 126 -115 208 -171 127 -86 342 -184 546 -251 80
-26 96 -24 258 36 172 64 314 134 443 219 85 56 255 209 255 228 -1 7 -86 100
-190 207 l-188 195 94 3 94 3 0 217 1 217 189 -195 189 -195 0 730 0 730 -189
-195 -190 -195 0 133 0 132 -176 0 c-107 0 -174 4 -172 10 2 5 68 76 147 157
80 81 177 181 215 221 l70 72 -719 0 -719 0 60 -62z m802 -680 c2 -156 5 -208
15 -209 6 0 84 0 173 1 88 1 177 -2 197 -5 l37 -7 0 -194 0 -194 -210 0 -210
0 -2 -212 -3 -213 -195 0 -195 0 -3 212 -2 213 -213 2 -212 3 -3 192 -2 191
92 7 c51 4 148 5 216 3 l122 -3 0 213 0 212 198 -2 197 -3 3 -207z"/>
<path d="M4320 4653 c1 -62 2 -66 15 -49 8 11 15 28 15 38 0 25 12 23 45 -8
15 -14 29 -23 31 -21 9 9 -43 72 -74 90 l-32 19 0 -69z"/>
<path d="M4296 4533 c-6 -14 -5 -15 5 -6 7 7 10 15 7 18 -3 3 -9 -2 -12 -12z"/>
<path d="M4244 4278 c90 -398 98 -428 122 -428 24 0 41 42 72 175 51 214 63
268 58 272 -2 2 -21 -5 -42 -16 -45 -24 -115 -27 -147 -7 -12 8 -32 17 -45 21
-20 6 -22 4 -18 -17z"/>
<path d="M3040 3983 c-19 -15 -60 -49 -91 -75 -31 -26 -62 -48 -69 -48 -7 0
-38 21 -68 48 -70 59 -114 92 -124 92 -4 0 -8 -52 -8 -115 l0 -115 80 0 c64 0
80 3 80 15 0 13 20 15 120 15 l120 0 0 105 c0 58 -1 105 -2 105 -2 0 -19 -12
-38 -27z"/>
<path d="M5992 3935 c-51 -41 -96 -75 -100 -75 -5 0 -49 32 -98 70 -49 39 -92
70 -96 70 -5 0 -8 -45 -8 -100 l0 -100 120 0 c100 0 120 -2 120 -15 0 -12 16
-15 80 -15 l80 0 0 120 c0 66 -1 120 -3 120 -2 0 -44 -34 -95 -75z"/>
<path d="M2880 3687 c0 -70 21 -271 35 -332 52 -228 151 -425 286 -572 227
-247 557 -412 1078 -541 l103 -25 97 22 c119 28 121 29 316 91 193 62 420 171
555 267 153 108 288 257 380 418 90 159 159 445 160 663 l0 82 -155 0 -155 0
0 -45 c0 -85 -30 -244 -64 -338 -130 -364 -479 -637 -1048 -822 l-88 -28 -112
38 c-583 195 -918 462 -1037 825 -27 82 -51 226 -51 308 l0 62 -150 0 -150 0
0 -73z m260 -237 c0 -14 -13 -20 -63 -29 -86 -15 -89 -14 -85 12 3 19 12 23
68 33 73 12 80 10 80 -16z m2593 -12 c54 -16 46 -48 -16 -63 -35 -9 -35 -23 0
-27 18 -2 29 -10 31 -22 4 -17 0 -18 -34 -12 -22 3 -49 9 -61 12 -17 5 -22 1
-28 -26 -9 -40 1 -51 14 -17 13 35 44 26 35 -9 -4 -14 -2 -24 5 -24 6 0 13 11
17 25 6 23 23 33 36 19 3 -3 -1 -28 -10 -55 -17 -53 -18 -53 -79 -33 -10 3 -4
-3 12 -15 17 -11 30 -25 29 -31 -1 -5 -2 -15 -2 -20 -1 -6 -14 -4 -32 5 -34
18 -41 4 -9 -19 32 -22 18 -47 -23 -40 -33 5 -33 5 -10 -12 12 -9 22 -23 22
-30 0 -16 -26 -19 -35 -4 -3 6 -11 10 -18 10 -8 0 -8 -3 1 -12 29 -29 -2 -108
-42 -108 -9 0 -12 -7 -10 -18 3 -10 -8 -29 -28 -49 l-33 -32 -55 49 c-52 46
-54 50 -38 66 17 17 19 17 51 -14 38 -37 48 -39 70 -14 14 16 13 19 -24 46
-21 17 -39 36 -39 43 0 25 29 25 63 -1 64 -49 82 -18 20 32 l-37 30 19 37 c18
32 24 36 53 33 37 -5 41 5 11 26 l-22 15 26 63 c14 35 31 81 39 102 10 31 21
42 48 51 l34 12 -32 11 c-23 8 -30 15 -26 27 7 17 26 15 107 -7z m-2583 -41
c0 -13 -9 -32 -20 -42 -28 -25 -25 -32 10 -27 46 7 40 -25 -8 -37 -90 -25
-102 -25 -102 -4 0 11 9 32 20 46 26 33 25 38 -6 27 -28 -11 -44 -6 -44 14 0
13 84 43 128 45 17 1 22 -4 22 -22z m118 -289 c2 -11 -11 -25 -37 -40 -38 -21
-40 -26 -35 -55 5 -26 3 -33 -9 -33 -15 0 -57 57 -57 77 0 13 102 72 120 70 8
-1 16 -10 18 -19z m51 -77 c9 -16 4 -23 -29 -46 -41 -28 -52 -55 -24 -55 9 0
29 11 46 25 16 14 33 25 37 25 4 0 20 -13 36 -30 25 -27 27 -32 16 -56 -15
-34 -8 -40 20 -21 20 15 24 14 60 -16 21 -18 39 -37 39 -43 0 -6 -19 -34 -42
-63 -32 -39 -44 -48 -55 -40 -19 17 -17 26 24 77 l37 47 -46 -44 c-30 -28 -52
-42 -62 -38 -21 8 -20 20 4 42 32 29 23 36 -15 14 -31 -19 -36 -19 -41 -5 -3
9 1 27 10 41 23 35 20 42 -8 15 -16 -14 -31 -20 -42 -16 -15 6 -14 10 12 38
24 25 25 29 7 19 -35 -18 -60 -13 -82 15 -32 40 -26 60 27 99 55 40 58 41 71
16z m2019 -169 c2 -7 -9 -17 -24 -22 -15 -6 -24 -13 -21 -17 4 -3 20 0 37 7
26 11 33 10 50 -5 11 -10 20 -24 20 -32 0 -24 -56 -73 -84 -73 -16 0 -26 -6
-26 -15 0 -23 -37 -55 -64 -55 -33 0 -107 97 -85 111 24 15 34 10 59 -31 14
-22 30 -40 37 -40 21 0 15 34 -12 70 -18 24 -22 37 -14 46 6 7 16 11 22 8 7
-2 17 6 22 18 10 23 52 50 69 45 6 -2 12 -9 14 -15z m-1780 -74 c7 -7 12 -28
12 -47 l0 -36 18 27 c12 19 22 24 32 18 12 -7 11 -14 -4 -42 -10 -18 -28 -46
-41 -62 -21 -26 -26 -28 -40 -16 -13 11 -15 24 -11 55 l6 40 -25 -27 c-52 -59
-61 -22 -12 52 33 52 45 58 65 38z m1600 -104 c18 -31 32 -59 32 -64 0 -8 -31
-23 -35 -18 -1 2 -9 14 -19 28 l-17 25 6 -36 c9 -47 -8 -58 -37 -24 -28 32
-45 33 -24 0 20 -30 20 -45 1 -45 -14 0 -75 94 -75 116 0 6 11 16 24 22 20 9
27 7 42 -9 24 -27 35 -24 23 8 -8 22 -7 30 7 40 29 21 38 16 72 -43z m-1423
-6 c5 -5 5 -12 -2 -19 -9 -9 -18 -8 -37 4 -31 21 -45 4 -14 -17 29 -20 12 -44
-20 -27 -31 17 -35 -1 -5 -25 21 -17 25 -25 17 -34 -9 -9 -22 -5 -53 14 -22
15 -41 31 -41 37 0 5 16 35 35 65 l36 55 37 -22 c20 -12 41 -26 47 -31z m1272
-81 c22 -49 24 -60 12 -68 -24 -15 -28 -11 -58 54 -30 67 -30 80 0 75 13 -2
29 -23 46 -61z m-79 21 c7 -7 12 -20 12 -29 0 -9 7 -22 15 -29 19 -15 19 -44
2 -59 -8 -6 -30 -18 -51 -26 l-37 -16 -22 51 c-19 46 -24 50 -47 45 -14 -4
-29 -11 -34 -16 -15 -14 0 -22 22 -10 11 6 22 7 26 4 12 -13 5 -32 -14 -38
-11 -3 -20 -11 -20 -16 0 -6 10 -7 23 -4 36 12 41 11 44 -6 3 -12 -9 -21 -43
-33 -26 -9 -48 -15 -49 -13 -14 22 -45 112 -43 124 2 8 40 29 88 48 97 37 111
40 128 23z m-1015 -20 c55 -22 58 -25 53 -50 -3 -16 -9 -41 -12 -58 -10 -49
20 -37 41 16 12 32 22 44 34 41 17 -3 17 -9 5 -41 -7 -17 -4 -17 24 4 67 50
140 -18 101 -93 -16 -29 -28 -37 -63 -37 -41 0 -66 26 -67 69 0 20 -3 29 -6
21 -18 -49 -60 -63 -102 -34 -23 17 -25 42 -6 102 15 45 -20 22 -42 -28 -20
-45 -25 -50 -42 -41 -19 11 -19 12 2 61 17 42 19 53 8 59 -13 8 -8 31 7 31 3
0 33 -10 65 -22z m791 -90 c18 -26 21 -61 6 -87 -8 -16 -88 -57 -95 -49 -2 2
-10 26 -18 53 -8 28 -18 58 -22 67 -9 22 22 36 77 37 27 1 41 -5 52 -21z
m-115 -126 c1 -19 -4 -23 -21 -20 -18 2 -25 14 -37 63 l-15 60 -11 -75 c-9
-64 -13 -75 -31 -78 -28 -4 -105 115 -83 129 23 14 29 11 52 -28 l22 -38 5 44
c5 42 7 45 45 56 l40 11 17 -50 c9 -28 17 -61 17 -74z"/>
<path d="M5308 2777 c-21 -6 -38 -14 -38 -18 0 -14 24 -23 28 -11 2 7 12 12
22 12 9 0 23 7 30 15 14 17 11 17 -42 2z"/>
<path d="M4870 2575 c0 -9 6 -12 15 -9 8 4 15 10 15 15 0 5 -7 9 -15 9 -8 0
-15 -7 -15 -15z"/>
<path d="M4890 2524 c0 -9 5 -14 12 -12 18 6 21 28 4 28 -9 0 -16 -7 -16 -16z"/>
<path d="M4085 2475 c-3 -8 -7 -21 -9 -28 -2 -8 0 -20 5 -28 8 -12 12 -11 24
5 20 26 19 66 0 66 -9 0 -18 -7 -20 -15z"/>
<path d="M4630 2486 c0 -27 20 -67 30 -61 14 9 13 48 -2 63 -16 16 -28 15 -28
-2z"/>
<path d="M1950 2025 c-25 -7 -61 -20 -81 -28 -37 -17 -149 -103 -149 -115 0
-4 27 -37 59 -72 l59 -65 34 32 c60 57 114 78 198 77 60 -1 85 -6 126 -27 56
-28 99 -73 121 -125 18 -43 20 -153 4 -211 -17 -60 -102 -145 -162 -161 -95
-26 -223 6 -286 72 l-27 28 -58 -57 c-32 -32 -58 -63 -58 -69 0 -15 57 -66
113 -101 129 -81 326 -84 470 -6 166 91 259 304 213 487 -23 94 -51 149 -106
209 -59 64 -136 111 -215 132 -71 18 -192 18 -255 0z"/>
<path d="M6549 2021 c-30 -10 -69 -26 -86 -36 -34 -20 -77 -80 -94 -132 -23
-70 12 -167 71 -201 16 -9 30 -19 29 -22 0 -3 -21 -18 -47 -35 -26 -16 -57
-48 -70 -70 -20 -35 -22 -51 -19 -117 3 -63 9 -84 30 -117 65 -99 199 -149
363 -138 149 11 246 66 295 171 46 96 46 96 -69 96 l-99 0 -24 -37 c-30 -47
-80 -73 -142 -73 -94 0 -147 41 -147 115 0 77 53 115 160 115 l60 0 0 79 0 79
-71 4 c-64 3 -74 7 -96 33 -20 23 -24 36 -19 64 8 56 45 81 116 81 74 0 103
-13 126 -56 l19 -34 99 0 99 0 -7 33 c-9 46 -70 131 -117 161 -83 55 -249 72
-360 37z"/>
<path d="M2690 1594 l0 -436 233 4 c209 4 238 7 292 27 123 45 209 134 246
254 18 57 20 86 17 175 -6 143 -30 206 -109 284 -104 105 -190 128 -473 128
l-206 0 0 -436z m437 250 c100 -34 149 -100 160 -216 11 -123 -34 -225 -119
-270 -36 -18 -64 -22 -165 -26 l-123 -4 0 266 0 266 100 0 c65 0 116 -6 147
-16z"/>
<path d="M3860 1953 c-31 -74 -218 -507 -301 -697 -21 -49 -39 -90 -39 -92 0
-2 46 -4 103 -4 l103 0 34 83 c18 45 38 88 43 95 7 9 54 12 191 10 l181 -3 39
-92 39 -93 103 0 103 0 -31 73 c-47 113 -80 189 -158 367 -39 91 -92 212 -117
270 -76 177 -59 160 -167 160 l-94 0 -32 -77z m147 -220 c6 -16 29 -70 51
-120 l40 -93 -109 0 c-60 0 -109 3 -109 6 0 3 7 18 15 32 8 15 31 66 51 115
20 48 39 87 43 87 4 0 12 -12 18 -27z"/>
<path d="M4560 1596 l0 -436 205 0 c279 0 364 21 466 117 91 85 137 218 124
365 -15 174 -101 293 -259 354 -69 27 -77 28 -303 32 l-233 4 0 -436z m423
253 c113 -28 177 -118 177 -248 0 -106 -14 -145 -69 -201 -57 -57 -101 -70
-235 -70 l-96 0 0 265 0 265 91 0 c49 0 109 -5 132 -11z"/>
<path d="M5530 1595 l0 -435 320 0 320 0 0 85 0 85 -225 0 -225 0 0 90 0 90
200 0 201 0 -3 83 -3 82 -197 3 -198 2 0 90 0 90 220 0 220 0 0 85 0 85 -315
0 -315 0 0 -435z"/>
<path d="M3772 948 c-146 -162 -318 -310 -399 -345 -21 -9 -33 -18 -26 -20 18
-6 71 24 143 81 108 86 113 85 35 -9 -75 -89 -164 -227 -171 -262 -5 -25 -2
-39 9 -50 20 -20 49 -10 99 35 39 35 138 172 138 190 0 5 13 12 28 15 15 3 55
26 88 50 l60 44 0 -46 c-1 -44 0 -46 30 -49 23 -2 41 6 71 30 60 49 115 127
111 157 -3 25 -6 26 -52 23 -43 -3 -58 -10 -105 -51 -80 -68 -162 -128 -188
-135 -19 -6 -21 -3 -20 31 1 21 -2 45 -6 53 -4 10 7 29 31 56 20 22 62 69 92
104 30 35 74 85 98 111 59 65 82 95 82 108 0 31 -40 -2 -148 -121z m198 -184
c0 -23 -32 -74 -46 -74 -29 0 -22 61 10 82 19 13 36 9 36 -8z m-94 -132 c-21
-18 -42 -32 -49 -29 -25 8 -18 52 14 90 l31 38 20 -32 20 -33 -36 -34z m-266
18 c0 -29 -11 -50 -26 -50 -23 0 -28 28 -10 55 18 28 36 25 36 -5z m-60 -49
c0 -5 9 -12 19 -16 17 -5 18 -9 8 -28 -47 -89 -150 -207 -179 -207 -41 0 -18
52 96 208 35 49 56 64 56 43z"/>
<path d="M5240 974 c-177 -198 -367 -360 -436 -371 -20 -3 -34 -1 -34 5 0 5
29 45 65 88 36 43 65 84 65 91 0 28 -37 10 -124 -61 -121 -98 -164 -126 -192
-126 -29 0 -30 10 -5 58 25 47 56 81 106 118 60 43 205 185 221 216 19 37 18
68 -2 68 -40 0 -190 -140 -283 -262 -22 -29 -57 -66 -78 -81 -21 -15 -63 -46
-93 -68 -30 -22 -65 -42 -77 -45 -13 -4 -23 -10 -23 -16 0 -21 76 19 154 81
49 39 61 39 41 1 -19 -37 -19 -64 0 -80 24 -20 83 2 155 58 34 26 71 54 83 62
l22 15 -19 -30 c-53 -81 -55 -115 -7 -115 36 0 93 32 172 96 36 30 69 54 73
54 3 0 -34 -51 -84 -112 -100 -126 -153 -221 -144 -255 20 -74 127 1 219 153
29 48 43 60 105 90 39 19 76 34 81 34 5 0 9 -11 9 -24 0 -26 16 -36 61 -36 34
0 39 17 7 22 -14 2 -24 11 -26 24 -2 17 10 27 62 53 64 31 120 83 113 104 -6
20 -34 30 -61 23 -15 -4 -58 -38 -97 -76 -60 -58 -168 -130 -197 -130 -4 0 -6
16 -4 35 2 19 -1 41 -7 48 -12 16 -3 28 181 234 110 123 136 163 105 163 -6 0
-55 -48 -107 -106z m-330 61 c0 -16 -55 -87 -101 -130 -109 -102 -129 -119
-135 -113 -9 9 204 248 221 248 8 0 15 -2 15 -5z m480 -258 c0 -21 -89 -97
-113 -97 -14 0 21 52 56 83 34 29 57 35 57 14z m-340 -138 c0 -30 -24 -50 -40
-33 -11 12 17 77 30 69 5 -3 10 -20 10 -36z m-42 -49 l23 -19 -45 -70 c-55
-86 -119 -151 -147 -151 -18 0 -20 4 -15 26 9 35 141 233 156 233 3 0 15 -8
28 -19z"/>
<path d="M4948 936 c-26 -20 -23 -46 6 -46 28 0 51 24 42 45 -7 18 -25 19 -48
1z"/>
<path d="M4152 807 c-12 -13 -22 -29 -22 -36 0 -26 -157 -155 -202 -166 -16
-4 -28 -11 -28 -16 0 -27 90 25 183 105 77 68 117 91 117 68 0 -4 -20 -27 -44
-51 -68 -67 -86 -131 -36 -131 21 0 28 16 9 22 -7 2 12 31 41 63 29 33 56 69
60 80 9 24 -5 55 -25 55 -9 0 -12 6 -9 15 9 23 -20 18 -44 -8z"/>
</g>
</svg>
